# xmcd CD database file
#
# Track frame offsets:
#	150
#	16078
#	28278
#	44880
#	55147
#	70173
#	86436
#	105307
#	119746
#	146247
#
# Disc length: 2229 seconds
#
# Revision: 0
# Processed by: cddbd v1.5.1PL0 Copyright (c) Steve Scherf et al.
# Submitted via: CDex 1.40Release
#
DISCID=8e08b30a
DTITLE=The Lennerockers - Live In Berlin
DYEAR=2004
DGENRE=Country
TTITLE0=Rattlesnake Cafe
TTITLE1=Stompin' With The Wildcats
TTITLE2=I've Got you On My Mind Again
TTITLE3=Hot Rod Baby
TTITLE4=The Unknown Picture
TTITLE5=High Class Lady
TTITLE6=Wabash Cannonball
TTITLE7=Crazy Little Teddy Girl
TTITLE8=Goodbye Boogie
TTITLE9=Rockin' On A Sea Cruise
EXTD=YEAR: 2004 ID3G: 2
EXTT0=
EXTT1=
EXTT2=
EXTT3=
EXTT4=
EXTT5=
EXTT6=
EXTT7=
EXTT8=
EXTT9=
PLAYORDER=
